<svg xmlns="http://www.w3.org/2000/svg" width="512" height="508" fill="none" viewBox="0 0 512 508"><path fill="#80B4FB" d="M199.388 311.686c-105.97 0-191.876-26.84-191.876-59.949v115.48c26.931 25.039 102.66 43.076 191.876 43.076 89.217 0 164.945-18.037 191.877-43.076v-115.48c0 33.109-85.906 59.949-191.877 59.949Z"/><path fill="#5490F9" d="M110.708 304.909C49.381 294.904 7.513 274.85 7.513 251.737v115.48c17.33 16.112 54.865 29.323 103.196 36.696l-.001-99.004Z"/><path fill="#80B4FB" d="M199.388 113.407c-105.97 0-191.876-12.678-191.876-45.786v95.326c0 33.108 85.906 59.947 191.876 59.947s191.877-26.839 191.877-59.947V67.621c0 33.108-85.906 45.786-191.877 45.786Z"/><path fill="#5490F9" d="M110.708 109.724C49.381 103.886 7.513 90.732 7.513 67.621v95.326c0 23.112 41.868 43.166 103.196 53.17l-.001-106.393Z"/><path fill="#9DC6FB" d="M199.388 407.012c-105.97 0-191.876-26.84-191.876-59.949v93.149c0 33.108 85.906 59.947 191.876 59.947s191.877-26.839 191.877-59.947v-93.149c0 33.109-85.906 59.949-191.877 59.949Z"/><path fill="#80B4FB" d="M110.708 400.235C49.381 390.23 7.513 370.176 7.513 347.063v93.149c0 23.112 41.868 43.165 103.196 53.17l-.001-93.147Z"/><path fill="#9DC6FB" d="M199.388 220.717c-105.97 0-191.876-26.84-191.876-59.948v93.147c0 33.109 85.906 59.949 191.876 59.949s191.877-26.84 191.877-59.949v-93.147c0 33.108-85.906 59.948-191.877 59.948Z"/><path fill="#80B4FB" d="M110.708 213.94C49.381 203.935 7.513 183.881 7.513 160.769v93.147c0 23.112 41.868 43.166 103.196 53.171l-.001-93.147Z"/><path fill="#B1D7FB" d="M199.388 127.568c105.971 0 191.877-26.839 191.877-59.947 0-33.108-85.906-59.948-191.877-59.948-105.97 0-191.876 26.84-191.876 59.948 0 33.108 85.906 59.947 191.876 59.947Z"/><path fill="#9DC6FB" d="M95.383 67.62c0-22.794 20.532-43.345 53.414-57.837C67.377 16.72 7.513 39.984 7.513 67.621c0 27.636 59.863 50.901 141.284 57.837-32.882-14.492-53.414-35.042-53.414-57.837Z"/><path fill="#FFE181" d="M391.278 234.108c62.533 0 113.226-50.693 113.226-113.226S453.811 7.656 391.278 7.656 278.052 58.35 278.052 120.882s50.693 113.226 113.226 113.226Z"/><path fill="#FEC458" d="M331.718 120.882c0-53.286 36.814-97.968 86.393-110.018a113.486 113.486 0 0 0-26.834-3.208c-62.533 0-113.226 50.693-113.226 113.226s50.692 113.226 113.226 113.226c9.246 0 18.231-1.117 26.834-3.207-49.579-12.05-86.393-56.732-86.393-110.019Z"/><path fill="#000" d="M331.151 16.2C210.26-18.47 0 5.134 0 67.588v372.61c0 43.812 102.728 67.451 199.386 67.451 96.659 0 199.387-23.64 199.387-67.451V331.345c0-4.143-3.357-7.5-7.5-7.5a7.499 7.499 0 0 0-7.5 7.5v15.701c0 23.974-74.304 52.45-184.387 52.45C89.307 399.496 15 371.02 15 347.046v-66.162c64.9 53.697 303.898 53.676 368.772 0v15.461c0 4.143 3.357 7.5 7.5 7.5s7.5-3.357 7.5-7.5v-54.989c18.418-1.145 36.384-6.488 52.367-15.633a7.5 7.5 0 0 0-7.448-13.019c-70.12 40.117-157.135-10.832-158.129-90.492-.738-58.965 47.015-107.075 105.71-107.075C449.57 15.137 497 62.567 497 120.866c0 26.52-9.865 51.885-27.777 71.422a7.5 7.5 0 1 0 11.057 10.137c20.455-22.312 31.721-51.276 31.721-81.559C512 28.298 411.363-30.054 331.151 16.2Zm52.621 357.849v66.149c0 23.974-74.304 52.451-184.387 52.451C89.307 492.65 15 464.172 15 440.198v-66.149c64.902 53.676 303.884 53.664 368.772 0ZM316.77 215.878c19.224 15.133 42.451 23.991 67.002 25.487v12.528c0 23.978-74.323 52.451-184.387 52.451C89.323 306.345 15 277.871 15 253.894v-66.149c47.39 39.194 198.342 52.611 301.77 28.133Zm-13.511-12.389c-129.481 26.565-288.26-5.294-288.26-42.748v-66.15c44.868 37.122 170.047 46.848 255.955 36.197 2.2 27.247 13.491 52.689 32.305 72.701Zm-32.606-87.8C142.271 132.041 15 100.403 15 67.588 15 28.168 187.623-3.347 314.815 27.4c-26.046 21.213-42.655 52.715-44.162 88.289Z"/><path fill="#FF901E" d="M352.261 164.964h-15.147a4.06 4.06 0 0 0-4.06 4.061v5.445a4.06 4.06 0 0 0 4.06 4.06h15.147v-13.566ZM333.054 73.397v-5.444a4.06 4.06 0 0 1 4.06-4.06h15.147v13.565h-15.147a4.06 4.06 0 0 1-4.06-4.06ZM333.054 98.666V93.22a4.06 4.06 0 0 1 4.06-4.06h15.147v13.565h-15.147a4.06 4.06 0 0 1-4.06-4.06ZM333.054 123.934v-5.444a4.06 4.06 0 0 1 4.06-4.061h15.147v13.565h-15.147a4.06 4.06 0 0 1-4.06-4.06ZM333.054 149.201v-5.444a4.06 4.06 0 0 1 4.06-4.061h15.147v13.565h-15.147a4.06 4.06 0 0 1-4.06-4.06Z"/><path fill="#FF6D3A" d="M448.945 73.397v-5.444a4.06 4.06 0 0 0-4.061-4.06h-15.147v13.502l15.147.063a4.061 4.061 0 0 0 4.061-4.06ZM448.945 98.666V93.22a4.06 4.06 0 0 0-4.061-4.06h-15.147v13.565h15.147a4.061 4.061 0 0 0 4.061-4.06ZM448.945 123.934v-5.444a4.06 4.06 0 0 0-4.061-4.061h-15.147v13.565h15.147a4.061 4.061 0 0 0 4.061-4.06ZM448.945 149.201v-5.444a4.06 4.06 0 0 0-4.061-4.061h-15.147v13.566h15.147a4.061 4.061 0 0 0 4.061-4.061ZM448.945 174.47v-5.444a4.06 4.06 0 0 0-4.061-4.061h-15.147v13.566h15.147a4.061 4.061 0 0 0 4.061-4.061Z"/><path fill="#FFB124" d="M423.821 191.368h-65.644a5.915 5.915 0 0 1-5.915-5.915V56.971a5.915 5.915 0 0 1 5.915-5.915h65.644a5.916 5.916 0 0 1 5.916 5.915v128.482a5.916 5.916 0 0 1-5.916 5.915Z"/><path fill="#FF901E" d="M423.823 51.056h-65.644c-.472 0-.929.06-1.368.165h56.557a5.915 5.915 0 0 1 5.915 5.915v128.482a5.914 5.914 0 0 1-4.547 5.751h9.087a5.916 5.916 0 0 0 5.915-5.916V56.971a5.915 5.915 0 0 0-5.915-5.915Z"/><path fill="#2D5872" d="M370.359 169.734V72.69a3.539 3.539 0 0 1 3.538-3.538h34.205a3.539 3.539 0 0 1 3.539 3.538v97.043a3.539 3.539 0 0 1-3.539 3.538h-34.205a3.536 3.536 0 0 1-3.538-3.537Z"/><path fill="#1D4859" d="M408.102 69.152h-10.437a3.538 3.538 0 0 1 3.538 3.538v97.043a3.538 3.538 0 0 1-3.538 3.538h10.437a3.539 3.539 0 0 0 3.539-3.538V72.69a3.539 3.539 0 0 0-3.539-3.538Z"/><path fill="#FFFCFD" d="M399.731 141.752h-16.676a1.081 1.081 0 0 1-1.081-1.081v-3.064c0-.942.088-1.77.266-2.485a5.515 5.515 0 0 1 .838-1.879 3.58 3.58 0 0 1 1.538-1.225c.646-.279 1.418-.418 2.318-.418.391 0 .74.014 1.047.041.307.028.658.093 1.052.194s.743.239 1.047.413c.303.175.601.426.894.754.294.328.538.715.733 1.161 2.93-.923 5.492-1.748 7.686-2.476a1.08 1.08 0 0 1 1.42 1.027v1.599c0 .496-.339.929-.821 1.049l-7.856 1.952v.628h7.596c.597 0 1.081.484 1.081 1.081v1.647a1.083 1.083 0 0 1-1.082 1.082Zm-9.919-3.81v-1.088c0-.293-.097-.545-.293-.754a1.682 1.682 0 0 0-.743-.455 5.48 5.48 0 0 0-.827-.199 4.637 4.637 0 0 0-1.402-.011 5.88 5.88 0 0 0-.79.168c-.29.08-.527.213-.712.397a.918.918 0 0 0-.277.675v1.267h5.044ZM399.743 129.303l-17.071-3.69a.883.883 0 0 1-.697-.863v-1.944c0-.416.29-.776.697-.864l17.072-3.68a.884.884 0 0 1 1.069.864v1.933c0 .424-.3.788-.717.868l-3.312.637v2.46l3.304.6c.42.076.725.442.725.87v1.945c0 .563-.52.983-1.07.864Zm-5.303-4.542v-1.946l-6.992.952 6.992.994ZM400.158 115.317h-17.529a.655.655 0 0 1-.655-.655v-3.35c0-.322.233-.596.551-.646l12.008-1.922-12.016-2.072a.656.656 0 0 1-.543-.646v-3.2c0-.361.293-.655.655-.655h17.529c.361 0 .655.293.655.655v1.5c0 .36-.291.652-.651.655l-12.599.079c1.36.209 3.569.576 6.625 1.099 2.673.458 4.697.796 6.073 1.013.318.05.552.325.552.647v1.735a.655.655 0 0 1-.543.645l-12.791 2.219 12.683.079c.36.003.651.295.651.655v1.51a.656.656 0 0 1-.655.655Z"/><path fill="#000" d="M385.246 171.216h-11.348a1.485 1.485 0 0 1-1.483-1.483V72.69c0-.817.666-1.482 1.483-1.482h11.321a2.055 2.055 0 1 0 0-4.111h-11.321a5.6 5.6 0 0 0-5.593 5.593v97.043a5.6 5.6 0 0 0 5.593 5.593h11.348a2.055 2.055 0 1 0 0-4.11ZM408.103 67.097h-12.41a2.055 2.055 0 0 0 0 4.111h12.41c.817 0 1.482.665 1.482 1.483v97.043c0 .817-.665 1.482-1.482 1.482h-12.385a2.055 2.055 0 0 0 0 4.111h12.385a5.6 5.6 0 0 0 5.593-5.593V72.69a5.6 5.6 0 0 0-5.593-5.593Z"/><path fill="#000" d="M444.883 79.514A6.123 6.123 0 0 0 451 73.398v-5.444a6.123 6.123 0 0 0-6.117-6.116h-13.091V56.97c.001-4.395-3.575-7.971-7.97-7.971h-65.644c-4.395 0-7.971 3.576-7.971 7.97v4.867h-13.091A6.123 6.123 0 0 0 331 67.953v5.445a6.123 6.123 0 0 0 6.116 6.116h13.091v7.591h-13.091A6.123 6.123 0 0 0 331 93.221v5.445a6.123 6.123 0 0 0 6.116 6.116h13.091v7.592h-13.091A6.123 6.123 0 0 0 331 118.49v5.444a6.123 6.123 0 0 0 6.116 6.116h13.091v7.592h-13.091a6.123 6.123 0 0 0-6.116 6.116v5.444a6.123 6.123 0 0 0 6.116 6.116h13.091v7.592h-13.091a6.123 6.123 0 0 0-6.116 6.116v5.444a6.123 6.123 0 0 0 6.116 6.116h13.091v4.867c0 4.395 3.576 7.971 7.971 7.971h65.644c4.395 0 7.971-3.576 7.971-7.971v-4.867h13.091A6.123 6.123 0 0 0 451 174.47v-5.444a6.123 6.123 0 0 0-6.116-6.116h-13.091v-7.592h13.091a6.123 6.123 0 0 0 6.116-6.116v-5.444a6.123 6.123 0 0 0-6.116-6.116h-13.091v-7.592h13.091a6.123 6.123 0 0 0 6.116-6.116v-5.444a6.123 6.123 0 0 0-6.116-6.116h-13.091v-7.592h13.091A6.123 6.123 0 0 0 451 98.666v-5.444a6.123 6.123 0 0 0-6.116-6.116h-13.091v-7.592h13.09Zm-13.09-13.566h13.09c1.106 0 2.006.9 2.006 2.005v5.445c0 1.106-.9 2.005-2.006 2.005h-13.09v-9.455Zm-81.586 110.528h-13.091c-1.106 0-2.005-.9-2.005-2.006v-5.444c0-1.106.899-2.005 2.005-2.005h13.091v9.455Zm0-25.269h-13.091a2.007 2.007 0 0 1-2.005-2.005v-5.444c0-1.106.899-2.006 2.005-2.006h13.091v9.455Zm0-25.268h-13.091a2.007 2.007 0 0 1-2.005-2.005v-5.444c0-1.106.899-2.005 2.005-2.005h13.091v9.454Zm0-25.268h-13.091c-1.106 0-2.005-.9-2.005-2.005v-5.444c0-1.106.899-2.006 2.005-2.006h13.091v9.455Zm0-25.268h-13.091c-1.106 0-2.005-.9-2.005-2.005v-5.444c0-1.106.899-2.006 2.005-2.006h13.091v9.455Zm77.475 110.05a3.865 3.865 0 0 1-3.86 3.86h-65.644a3.864 3.864 0 0 1-3.86-3.86V56.971a3.864 3.864 0 0 1 3.86-3.86h65.644a3.864 3.864 0 0 1 3.86 3.86v128.482Zm4.111-18.432h13.09c1.106 0 2.006.899 2.006 2.005v5.444c0 1.106-.9 2.006-2.006 2.006h-13.09v-9.455Zm0-25.269h13.09c1.106 0 2.006.9 2.006 2.006v5.444c0 1.106-.9 2.005-2.006 2.005h-13.09v-9.455Zm0-25.267h13.09c1.106 0 2.006.899 2.006 2.005v5.444c0 1.106-.9 2.005-2.006 2.005h-13.09v-9.454Zm0-25.269h13.09c1.106 0 2.006.9 2.006 2.006v5.444c0 1.106-.9 2.005-2.006 2.005h-13.09v-9.455Z"/></svg>